<svg width="23" height="28" viewBox="0 0 23 28" version="1.1" xmlns="http://www.w3.org/2000/svg" xmlns:xlink="http://www.w3.org/1999/xlink">
	<g transform="translate(2535 -70)">
		<g id="chevrons-down">
			<g id="Vector">
				<use xlink:href="#path0_stroke" transform="translate(-2534 86.1667)" fill="#66D3B0" />
			</g>
			<g id="Vector">
				<use xlink:href="#path0_stroke" transform="translate(-2534 71)" fill="#66D3B0" />
			</g>
		</g>
	</g>
	<defs>
		<path id="path0_stroke" d="M 0.718068 -0.695973C 0.333692 -1.09255 -0.299395 -1.10244 -0.695973 -0.718068C -1.09255 -0.333692 -1.10244 0.299395 -0.718068 0.695973L 0.718068 -0.695973ZM 10.5 10.8333L 9.78193 11.5293C 9.97029 11.7236 10.2294 11.8333 10.5 11.8333C 10.7706 11.8333 11.0297 11.7236 11.2181 11.5293L 10.5 10.8333ZM 21.7181 0.695973C 22.1024 0.299395 22.0926 -0.333692 21.696 -0.718068C 21.2994 -1.10244 20.6663 -1.09255 20.2819 -0.695973L 21.7181 0.695973ZM -0.718068 0.695973L 9.78193 11.5293L 11.2181 10.1374L 0.718068 -0.695973L -0.718068 0.695973ZM 11.2181 11.5293L 21.7181 0.695973L 20.2819 -0.695973L 9.78193 10.1374L 11.2181 11.5293Z"
		/>
	</defs>
</svg>
